<svg width="35" height="35" viewBox="0 0 35 35" fill="none" xmlns="http://www.w3.org/2000/svg">
<path d="M17.4999 0.999265C26.6126 0.999265 33.9999 8.38678 33.9999 17.4993C33.9999 26.6123 26.6127 33.9993 17.4999 33.9993C8.38717 33.9993 1 26.6123 1 17.4993C1 8.38677 8.38719 0.999265 17.4999 0.999265Z" fill="black" fill-opacity="0.01" stroke="white" stroke-width="2"/>
<path fill-rule="evenodd" clip-rule="evenodd" d="M25.9999 12.4245C25.4111 12.6588 24.7715 12.8275 24.1116 12.8929C24.7918 12.5183 25.3096 11.9277 25.5532 11.2242C24.9238 11.5716 24.2131 11.8244 23.472 11.9559C22.873 11.3652 22.0202 10.9994 21.0761 10.9994C19.2589 10.9994 17.7969 12.3587 17.7969 14.0278C17.7969 14.2619 17.8274 14.496 17.8781 14.7213C15.1573 14.5903 12.7309 13.3902 11.1167 11.5524C10.8324 12.0026 10.67 12.5183 10.67 13.0808C10.67 14.1306 11.2487 15.0587 12.132 15.6027C11.5939 15.5842 11.0863 15.443 10.6497 15.2184C10.6497 15.2276 10.6497 15.2466 10.6497 15.2558C10.6497 16.7276 11.7766 17.9466 13.2792 18.2279C13.0051 18.293 12.7107 18.3307 12.4162 18.3307C12.203 18.3307 12 18.312 11.7969 18.284C12.2131 19.4836 13.4212 20.3555 14.8629 20.3837C13.736 21.1996 12.3248 21.6778 10.7919 21.6778C10.5177 21.6778 10.2639 21.668 9.99994 21.6403C11.4517 22.5027 13.1776 22.9996 15.0355 22.9996C21.0659 22.9996 24.3654 18.3868 24.3654 14.3839C24.3654 14.2527 24.3654 14.1214 24.3553 13.9899C24.9948 13.5589 25.5532 13.0247 25.9999 12.4245Z" fill="white"/>
</svg>
