<svg width="94" height="21" viewBox="0 0 94 21" fill="none" xmlns="http://www.w3.org/2000/svg">
<g clip-path="url(#clip0_0_278)">
<path d="M7.512 20.288C6.184 20.288 4.896 20.112 3.648 19.76C2.416 19.392 1.424 18.92 0.672 18.344L1.992 15.416C2.712 15.944 3.568 16.368 4.56 16.688C5.552 17.008 6.544 17.168 7.536 17.168C8.64 17.168 9.456 17.008 9.984 16.688C10.512 16.352 10.776 15.912 10.776 15.368C10.776 14.968 10.616 14.64 10.296 14.384C9.992 14.112 9.592 13.896 9.096 13.736C8.616 13.576 7.96 13.4 7.128 13.208C5.848 12.904 4.8 12.6 3.984 12.296C3.168 11.992 2.464 11.504 1.872 10.832C1.296 10.16 1.008 9.264 1.008 8.144C1.008 7.168 1.272 6.288 1.8 5.504C2.328 4.704 3.12 4.072 4.176 3.608C5.248 3.144 6.552 2.912 8.088 2.912C9.16 2.912 10.208 3.04 11.232 3.296C12.256 3.552 13.152 3.92 13.92 4.4L12.72 7.352C11.168 6.472 9.616 6.032 8.064 6.032C6.976 6.032 6.168 6.208 5.64 6.56C5.128 6.912 4.872 7.376 4.872 7.952C4.872 8.528 5.168 8.96 5.76 9.248C6.368 9.52 7.288 9.792 8.52 10.064C9.8 10.368 10.848 10.672 11.664 10.976C12.48 11.28 13.176 11.76 13.752 12.416C14.344 13.072 14.64 13.96 14.64 15.08C14.64 16.04 14.368 16.92 13.824 17.72C13.296 18.504 12.496 19.128 11.424 19.592C10.352 20.056 9.048 20.288 7.512 20.288ZM25.3607 19.376C24.9927 19.648 24.5367 19.856 23.9927 20C23.4647 20.128 22.9047 20.192 22.3127 20.192C20.7767 20.192 19.5847 19.8 18.7367 19.016C17.9047 18.232 17.4887 17.08 17.4887 15.56V10.256H15.4967V7.376H17.4887V4.232H21.2327V7.376H24.4487V10.256H21.2327V15.512C21.2327 16.056 21.3687 16.48 21.6407 16.784C21.9287 17.072 22.3287 17.216 22.8407 17.216C23.4327 17.216 23.9367 17.056 24.3527 16.736L25.3607 19.376ZM32.6704 6.896C34.6704 6.896 36.2064 7.376 37.2784 8.336C38.3504 9.28 38.8864 10.712 38.8864 12.632V20H35.3824V18.392C34.6784 19.592 33.3664 20.192 31.4464 20.192C30.4544 20.192 29.5904 20.024 28.8544 19.688C28.1344 19.352 27.5824 18.888 27.1984 18.296C26.8144 17.704 26.6224 17.032 26.6224 16.28C26.6224 15.08 27.0704 14.136 27.9664 13.448C28.8784 12.76 30.2784 12.416 32.1664 12.416H35.1424C35.1424 11.6 34.8944 10.976 34.3984 10.544C33.9024 10.096 33.1584 9.872 32.1664 9.872C31.4784 9.872 30.7984 9.984 30.1264 10.208C29.4704 10.416 28.9104 10.704 28.4464 11.072L27.1024 8.456C27.8064 7.96 28.6464 7.576 29.6224 7.304C30.6144 7.032 31.6304 6.896 32.6704 6.896ZM32.3824 17.672C33.0224 17.672 33.5904 17.528 34.0864 17.24C34.5824 16.936 34.9344 16.496 35.1424 15.92V14.6H32.5744C31.0384 14.6 30.2704 15.104 30.2704 16.112C30.2704 16.592 30.4544 16.976 30.8224 17.264C31.2064 17.536 31.7264 17.672 32.3824 17.672ZM45.8509 8.792C46.2989 8.168 46.8989 7.696 47.6509 7.376C48.4189 7.056 49.2989 6.896 50.2909 6.896V10.352C49.8749 10.32 49.5949 10.304 49.4509 10.304C48.3789 10.304 47.5389 10.608 46.9309 11.216C46.3229 11.808 46.0189 12.704 46.0189 13.904V20H42.2749V7.088H45.8509V8.792ZM61.2904 19.376C60.9224 19.648 60.4664 19.856 59.9224 20C59.3944 20.128 58.8344 20.192 58.2424 20.192C56.7064 20.192 55.5144 19.8 54.6664 19.016C53.8344 18.232 53.4184 17.08 53.4184 15.56V10.256H51.4264V7.376H53.4184V4.232H57.1624V7.376H60.3784V10.256H57.1624V15.512C57.1624 16.056 57.2984 16.48 57.5704 16.784C57.8584 17.072 58.2584 17.216 58.7704 17.216C59.3624 17.216 59.8664 17.056 60.2824 16.736L61.2904 19.376ZM76.4001 7.088V20H72.8481V18.464C72.3521 19.024 71.7601 19.456 71.0721 19.76C70.3841 20.048 69.6401 20.192 68.8401 20.192C67.1441 20.192 65.8001 19.704 64.8081 18.728C63.8161 17.752 63.3201 16.304 63.3201 14.384V7.088H67.0641V13.832C67.0641 15.912 67.9361 16.952 69.6801 16.952C70.5761 16.952 71.2961 16.664 71.8401 16.088C72.3841 15.496 72.6561 14.624 72.6561 13.472V7.088H76.4001ZM87.5006 6.896C88.7006 6.896 89.7886 7.176 90.7646 7.736C91.7566 8.28 92.5326 9.056 93.0926 10.064C93.6526 11.056 93.9326 12.216 93.9326 13.544C93.9326 14.872 93.6526 16.04 93.0926 17.048C92.5326 18.04 91.7566 18.816 90.7646 19.376C89.7886 19.92 88.7006 20.192 87.5006 20.192C85.8526 20.192 84.5566 19.672 83.6126 18.632V24.656H79.8686V7.088H83.4446V8.576C84.3726 7.456 85.7246 6.896 87.5006 6.896ZM86.8526 17.12C87.8126 17.12 88.5966 16.8 89.2046 16.16C89.8286 15.504 90.1406 14.632 90.1406 13.544C90.1406 12.456 89.8286 11.592 89.2046 10.952C88.5966 10.296 87.8126 9.968 86.8526 9.968C85.8926 9.968 85.1006 10.296 84.4766 10.952C83.8686 11.592 83.5646 12.456 83.5646 13.544C83.5646 14.632 83.8686 15.504 84.4766 16.16C85.1006 16.8 85.8926 17.12 86.8526 17.12Z" fill="white"/>
</g>
<defs>
<clipPath id="clip0_0_278">
<rect width="94" height="22" fill="white" transform="translate(0 -1)"/>
</clipPath>
</defs>
</svg>
